# xmcd
#
# Track frame offsets:
#	150
#	13200
#	35279
#	47466
#	73453
#	86738
#	107063
#	120488
#	130679
#	149816
#	160691
#
# Disc length: 2392 seconds
#
# Revision: 1
# Processed by: cddbd v1.5.2PL0 Copyright (c) Steve Scherf et al.
# Submitted via: audiograbber 1.83.01
#
DISCID=9809560b
DTITLE=Volando Bajito - Pajaro
DYEAR=2014
DGENRE=Gitarre
TTITLE0=La Betty
TTITLE1=Autum leavers
TTITLE2=Curry
TTITLE3=Libertango
TTITLE4=Como dos extra nos
TTITLE5=Ma Nana de Carneval
TTITLE6=Pegotin
TTITLE7=Gipsy Swing
TTITLE8=Corco Bado
TTITLE9=La peluca es mia
TTITLE10=Adagio
EXTD=
EXTT0=
EXTT1=
EXTT2=
EXTT3=
EXTT4=
EXTT5=
EXTT6=
EXTT7=
EXTT8=
EXTT9=
EXTT10=
PLAYORDER=
